<?xml version="1.0" encoding="utf-8"?>
<!-- Generator: Adobe Illustrator 25.1.0, SVG Export Plug-In . SVG Version: 6.00 Build 0)  -->
<svg version="1.1" id="레이어_1" xmlns="http://www.w3.org/2000/svg" xmlns:xlink="http://www.w3.org/1999/xlink" x="0px"
	 y="0px" viewBox="0 0 920.4 276.7" style="enable-background:new 0 0 920.4 276.7;" xml:space="preserve">
<style type="text/css">
	.st0{fill:#E50914;}
</style>
<path class="st0" d="M0,236.6c4.7-0.2,10.2-1,14.9-1.6c15.6-2,25.2-12.6,24.7-28.9c0.1-68.4,0.1-136.8,0.2-205.2
	c14.4,0,28.8,0,43.2,0c-0.1,65.9-0.2,131.8-0.3,197.7c0.2,40.3-21.9,68.9-61.9,74.8c-7.8,1.2-13.7,2.1-20.7,2.4
	C0,262.8,0,249.7,0,236.6z M124.9,0.9c14.4,0,28.8,0,43.2,0c-0.2,84.5-0.4,168.9-0.5,253.4c-14.4,1.5-28.8,3-43.2,4.6
	C124.6,172.9,124.8,86.9,124.9,0.9z M251.3,68.8c-0.3,0-0.5,0-0.8,0c-0.1,59.5-0.2,119-0.4,178.4c-13,0.9-26,1.9-38.9,3
	c0.2-83.1,0.4-166.3,0.5-249.4c18.1,0,36.1,0,54.2,0c14.3,48.5,28.8,96.9,43.4,145.3c0.3,0,0.5,0,0.8,0c0.1-48.4,0.2-96.8,0.2-145.3
	c12.8,0,25.7,0,38.5,0c-0.1,80.3-0.2,160.7-0.3,241c-14.8,0.6-29.7,1.3-44.5,2C286.2,185.6,268.6,127.2,251.3,68.8z M435.6,107.1
	c18.6-0.1,37.2,0,55.9,0c0,11.4,0,22.8,0,34.1c-18.6-0.1-37.3-0.1-55.9,0c0,32.9,0,65.8,0,98.7c-14.4,0.1-28.9,0.4-43.3,0.7
	c0.1-79.9,0.1-159.8,0.2-239.7c38.1,0,76.2,0,114.3,0c0,11.4,0,22.8,0,34.2c-23.7,0-47.4-0.1-71.1,0C435.6,59,435.6,83,435.6,107.1z
	 M540.1,0.9c14.4,0,28.8,0,43.2,0c0.1,69,0.2,138,0.3,207c23.8,0.9,47.5,2,71.2,3.3c0,11.7,0,23.4,0.1,35
	c-38.2-2.4-76.3-4.2-114.6-5.3C540.3,160.9,540.2,80.9,540.1,0.9z M685.9,0.9c14.4,0,28.8,0,43.2,0c0.2,83.7,0.4,167.5,0.5,251.2
	c-14.4-1.3-28.8-2.5-43.2-3.6C686.2,165.9,686,83.4,685.9,0.9z M917.2,0.9c-14.8,43.5-29.8,86.8-45.1,130.1
	c16.5,48.2,32.5,96.5,48.2,144.9c-15.1-2.4-30.2-4.6-45.3-6.8c-11.5-36.4-23.1-72.7-35-109c-0.3,0-0.5,0-0.8-0.1
	c-11.6,33.3-23.3,66.6-35.1,99.9c-13.5-1.6-26.9-3.1-40.4-4.5c16.2-42.7,32.2-85.4,48-128.3c-14.9-42.2-30-84.3-45.4-126.3
	c14.9,0,29.9,0,44.8,0c10.9,32.4,21.7,64.8,32.3,97.3c0.3,0,0.5,0,0.8,0c11.1-32.4,22-64.8,32.9-97.3C890.5,0.9,903.9,0.9,917.2,0.9
	z"/>
</svg>
